<?xml version="1.0" encoding="UTF-8"?>
<svg width="85px" height="85px" viewBox="0 0 85 85" version="1.1" xmlns="http://www.w3.org/2000/svg" xmlns:xlink="http://www.w3.org/1999/xlink">
    <!-- Generator: Sketch 52.5 (67469) - http://www.bohemiancoding.com/sketch -->
    <title>Group 2</title>
    <desc>Created with Sketch.</desc>
    <g id="Symbols" stroke="none" stroke-width="1" fill="none" fill-rule="evenodd">
        <g id="HomeIcons" transform="translate(-23.000000, -21.000000)" fill="#FFFFFF">
            <g id="Icons" transform="translate(2.000000, 0.000000)">
                <g id="DatQL">
                    <g id="Icon" transform="translate(21.000000, 21.000000)">
                        <g id="Group-2" transform="translate(12.000000, 12.000000)">
                            <path d="M61,1.65001 C61,0.739335632 60.2070917,0 59.2306513,0 L1.76934867,0 C0.792908303,0 0,0.739335632 0,1.65001 L0,9.34999 C0,10.2606644 0.792908303,11 1.76934867,11 L59.2306513,11 C60.2070917,11 61,10.2606644 61,9.34999 L61,1.65001 Z" id="Shape"></path>
                            <path d="M61,51.65001 C61,50.7393356 60.2076449,50 59.2317578,50 L1.76824222,50 C0.792355079,50 0,50.7393356 0,51.65001 L0,59.34999 C0,60.2606644 0.792355079,61 1.76824222,61 L59.2317578,61 C60.2076449,61 61,60.2606644 61,59.34999 L61,51.65001 Z" id="Shape"></path>
                            <path d="M61,18.65001 C61,17.7393356 60.2076449,17 59.2317578,17 L1.76824222,17 C0.792355079,17 0,17.7393356 0,18.65001 L0,26.34999 C0,27.2606644 0.792355079,28 1.76824222,28 L59.2317578,28 C60.2076449,28 61,27.2606644 61,26.34999 L61,18.65001 Z" id="Shape"></path>
                            <path d="M61,34.65001 C61,33.7393356 60.2076449,33 59.2317578,33 L1.76824222,33 C0.792355079,33 0,33.7393356 0,34.65001 L0,42.34999 C0,43.2606644 0.792355079,44 1.76824222,44 L59.2317578,44 C60.2076449,44 61,43.2606644 61,42.34999 L61,34.65001 Z" id="Shape"></path>
                        </g>
                    </g>
                </g>
            </g>
        </g>
    </g>
</svg>