<?xml version="1.0" encoding="UTF-8"?>
<svg width="100px" height="100px" viewBox="0 0 100 100" version="1.1" xmlns="http://www.w3.org/2000/svg" xmlns:xlink="http://www.w3.org/1999/xlink">
    <!-- Generator: Sketch 52.5 (67469) - http://www.bohemiancoding.com/sketch -->
    <title>Group</title>
    <desc>Created with Sketch.</desc>
    <g id="Symbols" stroke="none" stroke-width="1" fill="none" fill-rule="evenodd">
        <g id="HomeIcons" transform="translate(-184.000000, -17.000000)" fill="#FFFFFF" fill-rule="nonzero">
            <g id="Icons" transform="translate(2.000000, 0.000000)">
                <g id="Group" transform="translate(160.000000, 0.000000)">
                    <g id="Group-4" transform="translate(22.000000, 17.000000)">
                        <g id="Group" transform="translate(50.000000, 50.000000) rotate(-26.429476) translate(-50.000000, -50.000000) translate(12.000000, 15.000000)">
                            <path d="M75.9068264,34.1807953 C75.9068264,15.4692636 59.1437822,-0.00373380094 38.0893985,-0.00373380094 C16.3644931,-0.00373380094 0.00376189405,15.709155 0.00376189405,34.9004696 C0.00376189405,53.4920557 16.6327018,69.9246188 37.8211898,69.9246188 C54.0478167,69.9246188 67.8605652,60.9286901 73.4929481,47.3748241 L59.5460952,47.3748241 C55.5229646,54.3316757 47.0743903,58.5297757 38.3576072,58.5297757 C26.154111,58.5297757 16.7668062,50.7333042 13.9506147,40.4179726 L75.5045134,40.4179726 C75.7727221,38.3788954 75.9068264,36.2198725 75.9068264,34.1807953 Z M61.9599736,30.8223153 L13.9506147,30.8223153 C14.7552409,19.9072551 25.8859023,11.3911092 37.9552942,11.3911092 C50.0246861,11.3911092 61.1553475,19.9072551 61.9599736,30.8223153 Z" id="Shape"></path>
                        </g>
                    </g>
                </g>
            </g>
        </g>
    </g>
</svg>