<?xml version="1.0" encoding="UTF-8" standalone="no"?><!DOCTYPE svg PUBLIC "-//W3C//DTD SVG 1.1//EN" "http://www.w3.org/Graphics/SVG/1.1/DTD/svg11.dtd"><svg width="100%" height="100%" viewBox="0 0 85 85" version="1.1" xmlns="http://www.w3.org/2000/svg" xmlns:xlink="http://www.w3.org/1999/xlink" xml:space="preserve" xmlns:serif="http://www.serif.com/" style="fill-rule:evenodd;clip-rule:evenodd;stroke-linejoin:round;stroke-miterlimit:1.41421;"><clipPath id="_clip1"><rect x="7.358" y="7.358" width="70.285" height="70.285"/></clipPath><g clip-path="url(#_clip1)"><g id="g25"><path id="polygon11" d="M62.44,46.47l5.581,6.878l-3.289,0l0,5.309l12.91,0l0,-5.309l-2.421,0l-9.183,-11.317l8.829,-10.893l2.775,0l0,-5.181l-12.91,0l0,5.181l2.934,0l-5.231,6.452l-5.235,-6.452l2.947,0l0,-5.181l-9.646,0l0,5.8l8.336,10.274l-8.336,10.283l0,1.034l3.974,0l0,5.309l5.672,0l0,-5.309l-3.283,0l5.575,-6.878l0.001,0Z" style="fill:#209fda;fill-rule:nonzero;"/><path id="polygon13" d="M47.174,25.957l0,5.181l2.824,0l0.503,0.619l0,-5.8l-3.327,0Z" style="fill:#026ba4;fill-rule:nonzero;"/><path id="polygon15" d="M54.475,53.348l-3.974,0l0,-1.034l-0.838,1.034l-2.489,0l0,5.309l7.301,0l0,-5.309Z" style="fill:#026ba4;fill-rule:nonzero;"/><path id="path17" d="M26.449,50.914l4.585,0c-0.536,1.332 -1.297,2.562 -2.248,3.636c-0.982,-1.069 -1.772,-2.299 -2.337,-3.636" style="fill:#78212e;fill-rule:nonzero;"/><path id="path19" d="M28.786,37.427c-1.331,1.449 -2.306,3.189 -2.846,5.081c0.214,0.419 0.388,0.856 0.52,1.307l4.538,0c0.136,-0.445 0.314,-0.876 0.533,-1.287c-0.508,-1.89 -1.448,-3.636 -2.745,-5.101Zm-2.326,6.388c0.4,1.377 0.412,2.839 0.034,4.222l4.464,0c-0.397,-1.381 -0.384,-2.848 0.036,-4.222l-4.534,0Zm0,0l-0.818,0c-0.241,1.397 -0.248,2.823 -0.021,4.222l0.873,0c0.378,-1.383 0.366,-2.845 -0.034,-4.222Z" style="fill:#78212e;fill-rule:nonzero;"/><path id="path21" d="M49.998,31.138l-2.824,0l0,-5.18l-5.332,0l0,5.18l3.444,0l0,4.466c-2.086,-1.498 -4.594,-2.298 -7.162,-2.286c-3.551,-0.004 -6.944,1.489 -9.339,4.109c1.295,1.465 2.234,3.212 2.741,5.101c1.28,-2.418 3.801,-3.936 6.537,-3.935c4.084,0 7.224,3.311 7.224,7.393l0,0.04c-0.02,4.064 -3.151,7.354 -7.224,7.354c-2.736,0.001 -5.257,-1.517 -6.537,-3.936c-0.238,-0.448 -0.429,-0.92 -0.57,-1.408l-5.332,0c0.161,0.988 0.439,1.954 0.828,2.876l4.582,0c-0.536,1.331 -1.297,2.561 -2.248,3.636c2.396,2.62 5.788,4.113 9.339,4.108c3.44,0.018 6.731,-1.424 9.051,-3.964l0,-1.343l2.485,0l0.839,-1.035l0,-20.555l-0.502,-0.621Zm-4.711,25.233l0,2.293l1.889,0l0,-3.973c-0.57,0.623 -1.203,1.186 -1.889,1.68Zm-19.347,-13.863c-0.123,0.43 -0.222,0.866 -0.298,1.307l0.818,0c-0.132,-0.451 -0.306,-0.888 -0.52,-1.307Z" style="fill:#8a8c8f;fill-rule:nonzero;"/><path id="path23" d="M31.806,43.815c-0.071,-0.434 -0.164,-0.863 -0.279,-1.287c-0.218,0.411 -0.397,0.842 -0.533,1.287c-0.42,1.374 -0.433,2.841 -0.036,4.222l0.867,0c0.216,-1.399 0.21,-2.824 -0.019,-4.222Zm-12.201,-10.497c-6.133,0 -11.43,4.454 -12.483,10.497l5.354,0c0.95,-3.096 3.83,-5.223 7.069,-5.222c2.697,-0.011 5.178,1.508 6.394,3.915c0.54,-1.892 1.514,-3.632 2.846,-5.081c-2.323,-2.628 -5.672,-4.128 -9.18,-4.109Zm5.358,17.596c-1.356,1.576 -3.339,2.479 -5.418,2.468c-3.285,0.001 -6.195,-2.187 -7.106,-5.343l13.182,0c-0.227,-1.399 -0.22,-2.826 0.021,-4.223l-18.52,0c-0.24,1.397 -0.247,2.824 -0.02,4.223c1.002,6.096 6.325,10.616 12.503,10.616c3.509,0.018 6.859,-1.482 9.181,-4.112c-0.982,-1.069 -1.772,-2.299 -2.337,-3.636l-1.486,0l0,0.007Z" style="fill:#b72768;fill-rule:nonzero;"/></g><rect id="rect27" x="7.358" y="14.202" width="137.384" height="63.538" style="fill:none;"/></g></svg>