<?xml version="1.0" encoding="UTF-8"?>
<svg width="85px" height="85px" viewBox="0 0 85 85" version="1.1" xmlns="http://www.w3.org/2000/svg" xmlns:xlink="http://www.w3.org/1999/xlink">
    <!-- Generator: Sketch 52.5 (67469) - http://www.bohemiancoding.com/sketch -->
    <title>Icon</title>
    <desc>Created with Sketch.</desc>
    <g id="Symbols" stroke="none" stroke-width="1" fill="none" fill-rule="evenodd">
        <g id="HomeIcons" transform="translate(-363.000000, -29.000000)" fill="#FFFFFF">
            <g id="Icons" transform="translate(2.000000, 0.000000)">
                <g id="Linguistic" transform="translate(320.000000, 0.000000)">
                    <g id="Group-3" transform="translate(41.000000, 29.000000)">
                        <path d="M50.895,67.29 C51.5183365,67.5166678 52.2124962,67.63 52.9775,67.63 C53.7425038,67.63 54.4791631,67.5450009 55.1875,67.375 C55.8958369,67.2049992 56.547497,66.7941699 57.1425,66.1425 C57.737503,65.4908301 58.2049983,64.9666687 58.545,64.57 C58.8850017,64.1733314 59.3099974,63.2950068 59.82,61.935 C60.4433365,60.3483254 61.2083288,58.1100145 62.115,55.22 C64.4950119,57.430011 65.9116644,59.101661 66.365,60.235 C63.6449864,70.2083832 58.856701,75.195 52,75.195 C48.7699839,75.195 44.6616916,73.0983543 39.675,68.905 C37.0683203,73.0983543 33.0166942,75.195 27.52,75.195 C25.0833212,75.195 22.8875098,74.3733416 20.9325,72.73 C18.9774902,71.0866585 18,68.7350153 18,65.675 C18,62.6149847 19.0199898,60.1075098 21.06,58.1525 C23.1000102,56.1974902 25.7349838,55.22 28.965,55.22 C29.5883364,55.22 30.466661,55.2766661 31.6,55.39 L32.79,44.595 C30.2966542,45.3883373 26.4433594,46.4083271 21.23,47.655 L21.23,41.28 C25.4800212,40.3166619 29.5599804,39.2400059 33.47,38.05 L35.17,24.195 C36.360006,14.7316193 41.1766244,10 49.62,10 C52.9633501,10 55.6408233,10.9208241 57.6525,12.7625 C59.6641767,14.6041759 60.67,17.19665 60.67,20.54 C60.67,28.5867069 55.4850519,35.0749753 45.115,40.005 L42.565,60.065 L42.48,60.915 C46.6733543,64.6550187 49.4783263,66.7799975 50.895,67.29 Z M54.295,21.22 C54.295,18.8399881 53.3033432,17.65 51.32,17.65 C48.9399881,17.65 47.4383364,20.454972 46.815,26.065 L45.965,32.78 C51.5183611,29.4933169 54.295,25.6400221 54.295,21.22 Z M24.46,65.08 C24.46,66.7800085 25.4233237,67.63 27.35,67.63 C29.2200093,67.63 30.3816644,65.9583501 30.835,62.615 C29.7583279,62.1616644 28.7525047,61.935 27.8175,61.935 C26.8824953,61.935 26.0891699,62.2466636 25.4375,62.87 C24.7858301,63.4933365 24.46,64.2299958 24.46,65.08 Z" id="Icon"></path>
                    </g>
                </g>
            </g>
        </g>
    </g>
</svg>