<?xml version="1.0" encoding="UTF-8"?>
<svg width="85px" height="85px" viewBox="0 0 85 85" version="1.1" xmlns="http://www.w3.org/2000/svg" xmlns:xlink="http://www.w3.org/1999/xlink">
    <!-- Generator: Sketch 52.5 (67469) - http://www.bohemiancoding.com/sketch -->
    <title>Icon</title>
    <desc>Created with Sketch.</desc>
    <g id="Symbols" stroke="none" stroke-width="1" fill="none" fill-rule="evenodd">
        <g id="HomeIcons" transform="translate(-348.000000, -182.000000)" fill="#FFFFFF">
            <g id="Icons" transform="translate(2.000000, 0.000000)">
                <g id="Push" transform="translate(320.000000, 160.000000)">
                    <g id="Group-6" transform="translate(26.000000, 22.000000)">
                        <path d="M19.7957484,28.043646 C36.0471015,28.043646 52.2982275,27.9525734 68.5491265,28.0129856 L68.5491265,28.043646 L74.7312746,28.043646 C76.8324785,28.043646 78.5379613,29.7499507 78.5379613,31.8516602 L78.5379613,62.3169094 C78.5379613,64.4188461 76.8322515,66.1251507 74.7312746,66.1251507 L19.7957484,66.1251507 C17.6947716,66.1251507 15.9890618,64.4188461 15.9890618,62.3169094 L15.9890618,56.0815048 L15.9824778,56.0815048 C15.9681746,48.0057984 15.9382061,39.9298648 15.9890618,31.8543856 L15.9890618,31.8516602 C15.9890618,31.6701964 16.0017757,31.491458 16.0262954,31.3165805 L16.0267495,31.3143094 L16.0285658,31.3018181 L16.0328794,31.2720662 L16.0337876,31.2661613 L16.0344687,31.2618461 L16.036512,31.2493549 L16.0403716,31.2250537 L16.0419608,31.2152878 L16.043096,31.2093829 L16.0449123,31.1989356 L16.0485448,31.1780412 L16.0510422,31.1641872 L16.0521774,31.1571467 L16.0537666,31.1489706 L16.0571721,31.1312558 L16.0608047,31.1124053 L16.0623939,31.1049106 L16.0635291,31.0992327 L16.0662535,31.0846975 L16.0717023,31.059715 L16.0730645,31.0529016 L16.0737456,31.0494949 L16.076243,31.0383663 L16.0837352,31.0045264 L16.0844163,31.0011197 L16.0846433,30.9999841 C16.0964491,30.9488835 16.109163,30.8980101 16.1230121,30.8475908 L16.1232392,30.8464553 L16.1243743,30.8425943 L16.1334557,30.8096629 L16.1366342,30.7989885 L16.1375423,30.7953547 L16.1398127,30.78786 L16.1466237,30.7646944 L16.1507103,30.7508404 L16.1527536,30.7444813 L16.155024,30.7367594 L16.1602458,30.719953 L16.1656946,30.7024652 L16.168419,30.6936078 L16.1706894,30.6870215 L16.1743219,30.6752116 L16.18136,30.65409 L16.1849925,30.6431886 L16.1865818,30.6381921 L16.1890791,30.6309244 L16.1983876,30.6043521 L16.2022471,30.5929965 L16.2031553,30.5902711 L16.2042905,30.5868644 L16.2201829,30.5430315 C16.2201829,30.5430315 16.2363023,30.4994257 16.2363023,30.4994257 L16.2378916,30.4957918 L16.2387997,30.4930665 L16.2426593,30.4830735 L16.2531029,30.4560469 L16.2565084,30.4478709 L16.2580976,30.4435557 L16.2615031,30.4351525 L16.2705845,30.4128954 L16.2762604,30.3990414 L16.2780766,30.394272 L16.280347,30.3890484 L16.2882932,30.3699709 L16.2978286,30.3479409 L16.2989638,30.3454426 L16.2996449,30.3438528 C16.4692397,29.9509462 16.7033122,29.5923338 16.9882404,29.2811882 L16.9891486,29.2802797 L16.9907378,29.2784628 L17.0093546,29.2582497 L17.0216145,29.2450771 L17.025247,29.2412162 L17.0291066,29.2371281 L17.0406854,29.224864 L17.0558967,29.2091931 L17.0620266,29.2028339 L17.0656592,29.198973 L17.0724702,29.1919325 L17.0917681,29.1724007 L17.0992603,29.164906 L17.1013036,29.1626348 L17.1044821,29.1594552 L17.136948,29.1274322 C17.136948,29.1274322 17.169868,29.0956363 17.169868,29.0956363 L17.1723654,29.0931381 L17.1741816,29.0915483 L17.1821278,29.0840535 L17.203015,29.0642946 L17.2089179,29.059071 L17.2120964,29.0561185 L17.2189074,29.0497594 L17.2366161,29.0334072 L17.2466056,29.0245497 L17.2502382,29.021143 L17.2550059,29.017055 L17.2706713,29.0027468 L17.2863366,28.98912 L17.2890611,28.9868489 L17.2911044,28.985032 C17.5994172,28.715221 17.9515476,28.4942394 18.3352358,28.3343514 L18.3379602,28.3332159 L18.3406846,28.3323074 L18.3574852,28.3252669 L18.3799616,28.3161823 L18.3858645,28.3136841 L18.389497,28.3123214 L18.4003947,28.3080063 L18.4253685,28.2982404 L18.4342228,28.2948337 L18.4374013,28.2936981 L18.4437583,28.2911998 L18.4723646,28.2805255 L18.4825812,28.2766646 L18.4846245,28.2759832 L18.4873489,28.2748477 L18.5313936,28.2591768 C18.5313936,28.2591768 18.5754383,28.2437331 18.5754383,28.2437331 L18.5788438,28.2425975 L18.5815682,28.2416891 L18.5931469,28.2380553 L18.61971,28.2291978 L18.6272021,28.2266996 L18.6321969,28.2251098 L18.6430945,28.2217031 L18.6642087,28.2148897 L18.6760145,28.2112558 L18.6828256,28.2092118 L18.6916799,28.2064865 L18.7091616,28.2012628 L18.7261891,28.1962663 L18.7339083,28.1939952 L18.7400382,28.1921783 L18.7541144,28.1880903 L18.777726,28.1817311 L18.7849911,28.1794599 L18.7886236,28.1785515 L18.7992942,28.175599 L18.8326683,28.1667416 L18.8365279,28.1658331 L18.837436,28.165606 C18.8880647,28.1524334 18.9393745,28.1401693 18.9906843,28.1290407 L18.9915924,28.1288136 L18.9949979,28.1281323 L19.0290531,28.1210917 L19.0404048,28.1188206 L19.0438103,28.1181393 L19.0506214,28.1167766 L19.0755952,28.1117801 L19.0901254,28.1090547 L19.0960283,28.1079191 L19.1035204,28.1065565 L19.1223643,28.1031498 L19.1400729,28.0999702 L19.1482462,28.0986075 L19.1552843,28.0974719 L19.1691334,28.0949737 L19.1902476,28.091567 L19.2006911,28.0899772 L19.206594,28.0890687 L19.2163565,28.0874789 L19.2411033,28.0838451 L19.2533631,28.0820282 L19.2576768,28.081574 L19.2638067,28.0806655 L19.2933212,28.0765775 L19.3060351,28.0749877 L19.3083055,28.0745334 L19.3112569,28.0743063 L19.3589342,28.0684014 C19.5021929,28.0520492 19.647949,28.043646 19.7957484,28.043646 Z M10.7114189,56.0815048 L9.80691368,56.0815048 C7.70593687,56.0815048 6,54.3752001 6,52.2732634 L6,21.8080142 C6,19.7063047 7.70570983,18 9.80691368,18 L64.7422128,18 C66.8434167,18 68.5491265,19.7063047 68.5491265,21.8080142 L68.5491265,22.7335022 C52.2927787,22.6733171 36.0357498,22.7641626 19.7789479,22.7641626 C19.6686091,22.7648439 19.5582704,22.7664337 19.4479317,22.7707489 C19.2558605,22.7780165 19.0640164,22.7914162 18.8728534,22.810948 C18.1958367,22.8797634 17.5269932,23.024889 16.8824424,23.2433723 C15.7368265,23.6315095 14.672489,24.2508484 13.7677567,25.0539222 C13.1713372,25.5833241 12.6448443,26.1915343 12.2062138,26.8576586 C11.8014113,27.4726823 11.4715303,28.1369897 11.2267871,28.8315032 C11.0008879,29.4726449 10.8476396,30.1389963 10.7704479,30.8142051 C10.7441119,31.0433628 10.7266302,31.2734289 10.7177759,31.5037221 C10.7136893,31.6143265 10.7121,31.7244766 10.7114189,31.8350809 L10.7114189,56.0815048 Z" id="Icon"></path>
                    </g>
                </g>
            </g>
        </g>
    </g>
</svg>