<?xml version="1.0" encoding="UTF-8" standalone="no"?><!DOCTYPE svg PUBLIC "-//W3C//DTD SVG 1.1//EN" "http://www.w3.org/Graphics/SVG/1.1/DTD/svg11.dtd"><svg width="100%" height="100%" viewBox="0 0 85 85" version="1.1" xmlns="http://www.w3.org/2000/svg" xmlns:xlink="http://www.w3.org/1999/xlink" xml:space="preserve" xmlns:serif="http://www.serif.com/" style="fill-rule:evenodd;clip-rule:evenodd;stroke-linejoin:round;stroke-miterlimit:1.41421;"><path id="mark_28_" d="M31.002,8.178l-22.824,13.214l0,30.203c0,13.901 11.155,25.227 25.055,25.227c4.634,0 8.924,-1.201 12.699,-3.26l18.534,-10.64c7.379,-3.947 12.356,-11.498 12.356,-20.422l0,-31.576l-4.462,-2.575l-19.563,10.469l0,32.949c0,1.373 -0.172,2.746 -0.344,4.119c-0.343,1.373 -0.686,2.574 -1.201,3.775l-0.515,1.03c-0.686,0 -4.976,-1.545 -7.207,-3.089c-1.03,-0.687 -1.888,-1.373 -2.746,-2.231c-0.858,-0.858 -1.545,-1.716 -2.231,-2.746c-0.686,-1.03 -1.201,-2.059 -1.716,-3.089c-0.515,-1.03 -0.858,-2.231 -1.03,-3.432c-0.171,-1.201 -0.171,-2.403 -0.171,-3.604l0,-31.576l-4.634,-2.746Zm11.155,62.123c-1.201,0.515 -2.918,1.201 -4.29,1.544c-1.373,0.344 -2.575,0.344 -3.948,0.344c-1.372,0 -2.745,-0.172 -4.118,-0.515c-1.373,-0.343 -2.574,-0.687 -3.776,-1.201c-1.201,-0.515 -2.402,-1.202 -3.432,-1.888c-3.089,-1.888 -4.633,-3.604 -5.835,-5.492c-0.686,-1.029 -1.372,-2.231 -1.887,-3.432c-0.515,-1.201 -0.858,-2.574 -1.202,-3.947c-0.343,-1.373 -0.343,-2.746 -0.343,-4.119l0,-27.629l17.161,-10.468l0,29.002c0,10.983 8.066,20.25 18.363,22.481c-0.344,0.515 -0.687,1.03 -1.202,1.373c-1.887,1.888 -3.432,3.089 -5.491,3.947Zm29.174,-24.026c-0.172,1.202 -0.687,2.403 -1.03,3.433c-0.515,1.029 -1.03,2.059 -1.716,3.089c-0.687,1.029 -2.746,3.603 -5.492,5.148c-2.745,1.544 -5.32,2.059 -6.864,2.403c1.03,-2.746 1.716,-5.492 1.716,-8.581l0,-30.375l13.729,-7.894l0,29.002c0,1.373 0,2.574 -0.343,3.775Z" style="fill:#fff;fill-rule:nonzero;"/></svg>